<?xml version="1.0" standalone="no"?>
<!DOCTYPE svg PUBLIC "-//W3C//DTD SVG 20010904//EN"
 "http://www.w3.org/TR/2001/REC-SVG-20010904/DTD/svg10.dtd">
<svg version="1.0" xmlns="http://www.w3.org/2000/svg"
 width="1280.000000pt" height="1114.000000pt" viewBox="0 0 1280.000000 1114.000000"
 preserveAspectRatio="xMidYMid meet">
<metadata>
Created by potrace 1.15, written by Peter Selinger 2001-2017
</metadata>
<g transform="translate(0.000000,1114.000000) scale(0.100000,-0.100000)"
fill="#000000" stroke="none">
<path d="M3520 11129 c-509 -58 -978 -330 -1291 -749 -109 -146 -172 -204
-213 -196 -37 8 -128 73 -239 172 -144 128 -189 163 -245 191 -51 25 -58 25
-175 20 -263 -12 -488 -84 -579 -186 -123 -136 -126 -240 -28 -1006 66 -520
91 -813 89 -1055 -2 -164 -7 -203 -30 -208 -39 -7 -337 269 -503 466 -81 97
-130 133 -189 139 -53 6 -81 -7 -103 -48 -19 -37 -12 -63 15 -54 26 8 38 -11
46 -75 23 -171 271 -673 470 -950 72 -99 199 -221 269 -258 48 -25 59 -27 186
-27 115 0 145 3 205 23 124 42 217 113 314 240 18 23 47 50 64 59 46 23 143 3
252 -53 48 -24 109 -48 139 -52 66 -11 97 -29 137 -85 45 -60 75 -133 110
-261 52 -194 119 -357 275 -666 130 -258 215 -406 367 -640 164 -252 231 -375
272 -502 61 -191 163 -363 356 -603 224 -279 599 -609 747 -655 20 -7 47 -19
59 -26 32 -20 67 -95 88 -184 9 -41 39 -167 66 -280 68 -288 104 -490 145
-819 38 -304 65 -450 108 -570 61 -173 131 -628 151 -986 l7 -120 -115 -440
c-63 -242 -117 -452 -120 -466 -6 -23 0 -29 71 -72 171 -102 322 -142 527
-141 159 1 250 20 370 78 265 126 364 356 229 533 -23 31 -24 35 -10 55 27 38
19 114 -28 279 -110 386 -163 722 -173 1099 -11 412 31 744 147 1145 60 208
82 323 115 592 15 114 34 242 43 283 l17 75 55 18 c107 36 261 51 535 51 l260
1 120 -54 c254 -113 390 -153 609 -176 221 -24 353 -63 596 -175 170 -79 511
-148 780 -157 246 -8 271 -1 555 152 98 53 118 60 186 66 87 8 110 18 199 89
115 92 189 118 237 85 106 -74 597 -868 718 -1158 78 -190 107 -382 107 -702
-1 -324 -35 -587 -121 -928 -49 -196 -71 -245 -148 -331 -237 -266 -230 -407
22 -423 245 -16 628 132 772 297 32 38 73 111 73 132 0 9 -14 14 -38 14 -53 2
-78 18 -102 64 -36 71 -28 169 41 497 33 158 78 373 100 478 52 246 109 475
163 650 58 187 70 246 62 322 -6 56 -5 63 11 63 26 0 86 -52 138 -120 100
-130 170 -297 207 -495 18 -99 21 -161 25 -625 5 -543 -2 -703 -34 -769 -13
-26 -35 -45 -78 -68 -114 -60 -142 -121 -86 -186 74 -84 285 -148 488 -147
315 2 475 172 387 415 -41 116 -47 254 -33 780 19 680 18 1328 -3 1430 -37
185 -71 231 -276 371 -147 100 -227 165 -407 325 -254 227 -445 429 -445 471
0 11 -25 75 -55 143 -68 150 -69 179 -20 326 47 136 96 335 135 539 47 250
104 501 170 750 70 266 94 378 111 520 15 132 6 336 -22 485 -11 61 -24 132
-29 159 -10 52 -31 91 -65 118 -12 9 -27 36 -34 60 -7 23 -36 88 -63 142 -124
246 -200 323 -373 377 -34 10 -195 85 -356 165 -338 168 -451 216 -639 273
-194 58 -330 88 -473 105 -109 13 -139 21 -246 66 -67 28 -155 58 -197 66
-161 30 -369 10 -614 -61 -224 -65 -231 -66 -584 -63 -280 2 -336 0 -436 -17
-149 -26 -326 -26 -542 0 l-168 19 -116 -28 c-171 -42 -205 -38 -499 63 -524
179 -836 260 -1001 261 -70 0 -115 10 -121 27 -3 7 4 44 16 81 31 101 42 207
42 422 -1 343 -32 483 -168 755 -66 132 -181 300 -281 411 -361 402 -933 623
-1462 563z m320 -1149 c213 -60 355 -175 458 -369 79 -147 122 -306 122 -445
0 -112 -20 -175 -70 -219 -86 -78 -172 -97 -253 -56 -55 28 -176 146 -290 282
-49 59 -98 112 -108 117 -28 15 -59 -2 -145 -79 -88 -79 -120 -94 -141 -66
-34 47 -6 92 104 166 179 121 310 305 321 449 4 60 2 68 -23 98 -28 34 -80 64
-127 76 -44 10 -115 -11 -258 -78 -211 -100 -315 -127 -328 -87 -7 22 102 116
188 161 157 81 371 101 550 50z m-1024 -610 c32 -16 77 -45 99 -64 l40 -34
-24 -26 c-14 -15 -49 -38 -78 -53 -46 -22 -63 -25 -113 -20 -57 5 -144 39
-185 71 -18 16 -18 18 30 66 51 52 115 90 151 90 11 0 47 -13 80 -30z m-1273
-174 c18 -8 43 -24 57 -35 l25 -20 -35 -36 c-45 -48 -113 -87 -142 -83 -30 4
-57 55 -60 114 -3 47 -2 49 32 61 47 16 84 16 123 -1z m2068 -600 c115 -175
285 -319 460 -389 121 -49 193 -61 344 -61 155 0 244 18 375 73 195 83 385
256 475 430 16 33 18 34 31 16 35 -48 5 -171 -70 -284 -165 -248 -509 -408
-835 -388 -262 16 -512 148 -714 376 -106 119 -178 270 -161 337 7 26 8 27 18
10 6 -10 41 -64 77 -120z m-1846 25 c92 -47 205 -158 240 -234 52 -112 40
-219 -29 -272 -77 -59 -261 -120 -341 -113 l-40 3 0 45 0 45 -40 3 c-52 4 -60
13 -42 48 24 45 74 87 177 149 108 65 140 91 140 115 0 39 -70 80 -136 80 -63
0 -113 -25 -209 -105 -43 -36 -86 -64 -94 -63 -29 6 -26 99 5 168 44 98 109
150 219 173 35 7 78 -5 150 -42z m290 -659 c-10 -32 -112 -120 -153 -133 -63
-19 -194 -23 -216 -6 -45 34 12 74 158 111 55 14 124 34 151 45 53 21 71 16
60 -17z"/>
</g>
</svg>
